<svg width="618" height="617" viewBox="0 0 618 617" fill="none" xmlns="http://www.w3.org/2000/svg">
<mask id="path-1-inside-1_507_2" fill="white">
<path d="M336.538 261.195C339.149 256.543 345.093 254.835 349.308 258.106C357.951 264.814 364.805 273.631 369.169 283.777C374.811 296.898 375.975 311.511 372.481 325.359C368.987 339.207 361.029 351.519 349.837 360.391C338.646 369.264 324.844 374.204 310.564 374.447C296.284 374.69 282.321 370.224 270.834 361.737C259.346 353.251 250.974 341.218 247.01 327.497C243.046 313.776 243.712 299.131 248.904 285.826C252.919 275.537 259.469 266.492 267.879 259.493C271.979 256.081 277.978 257.585 280.746 262.146V262.146C283.514 266.706 281.967 272.584 278.089 276.247C273.206 280.859 269.371 286.519 266.901 292.85C263.252 302.2 262.784 312.492 265.57 322.135C268.355 331.778 274.24 340.235 282.313 346.199C290.386 352.163 300.199 355.302 310.234 355.131C320.27 354.96 329.97 351.488 337.836 345.253C345.701 339.017 351.294 330.365 353.749 320.633C356.205 310.9 355.387 300.63 351.422 291.41C348.737 285.167 344.711 279.641 339.675 275.198C335.674 271.669 333.928 265.847 336.538 261.195V261.195Z"/>
</mask>
<path d="M336.538 261.195C339.149 256.543 345.093 254.835 349.308 258.106C357.951 264.814 364.805 273.631 369.169 283.777C374.811 296.898 375.975 311.511 372.481 325.359C368.987 339.207 361.029 351.519 349.837 360.391C338.646 369.264 324.844 374.204 310.564 374.447C296.284 374.69 282.321 370.224 270.834 361.737C259.346 353.251 250.974 341.218 247.01 327.497C243.046 313.776 243.712 299.131 248.904 285.826C252.919 275.537 259.469 266.492 267.879 259.493C271.979 256.081 277.978 257.585 280.746 262.146V262.146C283.514 266.706 281.967 272.584 278.089 276.247C273.206 280.859 269.371 286.519 266.901 292.85C263.252 302.2 262.784 312.492 265.57 322.135C268.355 331.778 274.24 340.235 282.313 346.199C290.386 352.163 300.199 355.302 310.234 355.131C320.27 354.96 329.97 351.488 337.836 345.253C345.701 339.017 351.294 330.365 353.749 320.633C356.205 310.9 355.387 300.63 351.422 291.41C348.737 285.167 344.711 279.641 339.675 275.198C335.674 271.669 333.928 265.847 336.538 261.195V261.195Z" stroke="#007BC0" stroke-width="70" mask="url(#path-1-inside-1_507_2)"/>
<path d="M299.456 257.456C299.456 251.933 303.933 247.456 309.456 247.456V247.456C314.979 247.456 319.456 251.933 319.456 257.456V284.456C319.456 289.979 314.979 294.456 309.456 294.456V294.456C303.933 294.456 299.456 289.979 299.456 284.456V257.456Z" fill="#007BC0"/>
<path d="M299 146C299 140.477 303.477 136 309 136V136C314.523 136 319 140.477 319 146V203C319 208.523 314.523 213 309 213V213C303.477 213 299 208.523 299 203V146Z" fill="#007BC0"/>
<path d="M299 146C299 140.477 303.477 136 309 136V136C314.523 136 319 140.477 319 146V203C319 208.523 314.523 213 309 213V213C303.477 213 299 208.523 299 203V146Z" fill="#007BC0"/>
<path d="M155.66 230.321C150.877 227.559 149.239 221.443 152 216.66V216.66C154.761 211.877 160.877 210.239 165.66 213L215.024 241.5C219.807 244.261 221.445 250.377 218.684 255.16V255.16C215.923 259.943 209.807 261.582 205.024 258.821L155.66 230.321Z" fill="#007BC0"/>
<path d="M165.66 406.821C160.877 409.582 154.761 407.943 152 403.16V403.16C149.239 398.377 150.877 392.261 155.66 389.5L205.024 361C209.807 358.239 215.923 359.877 218.684 364.66V364.66C221.445 369.443 219.807 375.559 215.024 378.321L165.66 406.821Z" fill="#007BC0"/>
<path d="M456.024 386.5C460.807 389.261 462.446 395.377 459.684 400.16V400.16C456.923 404.943 450.807 406.582 446.024 403.821L396.66 375.321C391.877 372.559 390.239 366.443 393 361.66V361.66C395.762 356.877 401.877 355.239 406.66 358L456.024 386.5Z" fill="#007BC0"/>
<path d="M448.024 213C452.807 210.239 458.923 211.877 461.684 216.66V216.66C464.446 221.443 462.807 227.559 458.024 230.321L408.66 258.821C403.877 261.582 397.762 259.943 395 255.16V255.16C392.239 250.377 393.877 244.261 398.66 241.5L448.024 213Z" fill="#007BC0"/>
<path d="M299 419C299 413.477 303.477 409 309 409V409C314.523 409 319 413.477 319 419V476C319 481.523 314.523 486 309 486V486C303.477 486 299 481.523 299 476V419Z" fill="#007BC0"/>
<path d="M152.595 121.025C152.595 121.025 153.739 120.173 156.026 118.467C158.313 116.762 161.408 115.456 165.311 114.55C169.358 113.56 173.734 114.306 178.438 116.786C181.442 118.323 184.738 120.366 188.326 122.913C191.975 125.233 195.407 127.677 198.622 130.247C201.982 132.734 204.72 134.809 206.837 136.474C208.953 138.14 210.011 138.972 210.011 138.972L204.751 99.8621C204.751 99.8621 204.881 98.921 205.141 97.0386C205.546 95.0729 206.642 92.8044 208.429 90.233C210.361 87.5783 213.647 85.1036 218.288 82.809C231.923 76.0916 239.133 77.4136 239.919 86.7748C240.031 88.6349 240.273 92.0551 240.647 97.0355C240.937 101.872 241.23 107.38 241.527 113.559C241.884 119.512 242.199 125.392 242.473 131.199C242.892 136.924 243.212 141.646 243.436 145.366C243.659 149.086 243.771 150.946 243.771 150.946L275.353 203.149C275.353 203.149 275.728 203.798 276.478 205.097C277.289 206.169 277.834 207.779 278.112 209.928C278.307 211.932 277.625 214.25 276.066 216.883C274.423 219.371 271.22 221.99 266.457 224.74C260.106 228.406 254.915 230.249 250.884 230.267C246.997 230.201 244.109 229.367 242.221 227.762C240.249 226.014 238.972 224.635 238.389 223.624C238.055 223.047 236.733 220.924 234.422 217.254C232.255 213.501 229.714 209.099 226.797 204.047C223.88 198.995 220.892 193.985 217.831 189.017C214.914 183.965 212.425 179.821 210.364 176.584C208.447 173.265 207.489 171.605 207.489 171.605L152.194 142.33C152.194 142.33 151.386 141.931 149.77 141.132C148.154 140.333 146.701 139.151 145.413 137.585C144.185 135.792 143.937 133.53 144.669 130.798C145.401 128.066 148.043 124.808 152.595 121.025Z" fill="#007BC0"/>
<path d="M540.75 264.75C540.75 264.75 540.917 266.167 541.25 269C541.583 271.833 541.167 275.167 540 279C538.833 283 536 286.417 531.5 289.25C528.667 291.083 525.25 292.917 521.25 294.75C517.417 296.75 513.583 298.5 509.75 300C505.917 301.667 502.75 303 500.25 304C497.75 305 496.5 305.5 496.5 305.5L533 320.5C533 320.5 533.75 321.083 535.25 322.25C536.75 323.583 538.167 325.667 539.5 328.5C540.833 331.5 541.333 335.583 541 340.75C540 355.917 535.25 361.5 526.75 357.5C525.083 356.667 522 355.167 517.5 353C513.167 350.833 508.25 348.333 502.75 345.5C497.417 342.833 492.167 340.167 487 337.5C481.833 335 477.583 332.917 474.25 331.25C470.917 329.583 469.25 328.75 469.25 328.75L408.25 330C408.25 330 407.5 330 406 330C404.667 330.167 403 329.833 401 329C399.167 328.167 397.5 326.417 396 323.75C394.667 321.083 394 317 394 311.5C394 304.167 395 298.75 397 295.25C399 291.917 401.167 289.833 403.5 289C406 288.167 407.833 287.75 409 287.75C409.667 287.75 412.167 287.667 416.5 287.5C420.833 287.5 425.917 287.5 431.75 287.5C437.583 287.5 443.417 287.417 449.25 287.25C455.083 287.25 459.917 287.167 463.75 287C467.583 287 469.5 287 469.5 287L522.5 253.75C522.5 253.75 523.25 253.25 524.75 252.25C526.25 251.25 528 250.583 530 250.25C532.167 250.083 534.25 251 536.25 253C538.25 255 539.75 258.917 540.75 264.75Z" fill="#007BC0"/>
<path d="M77.25 353.25C77.25 353.25 77.0833 351.833 76.75 349C76.4167 346.167 76.8333 342.833 78 339C79.1667 335 82 331.583 86.5 328.75C89.3333 326.917 92.75 325.083 96.75 323.25C100.583 321.25 104.417 319.5 108.25 318C112.083 316.333 115.25 315 117.75 314C120.25 313 121.5 312.5 121.5 312.5L85 297.5C85 297.5 84.25 296.917 82.75 295.75C81.25 294.417 79.8333 292.333 78.5 289.5C77.1667 286.5 76.6667 282.417 77 277.25C78 262.083 82.75 256.5 91.25 260.5C92.9167 261.333 96 262.833 100.5 265C104.833 267.167 109.75 269.667 115.25 272.5C120.583 275.167 125.833 277.833 131 280.5C136.167 283 140.417 285.083 143.75 286.75C147.083 288.417 148.75 289.25 148.75 289.25L209.75 288C209.75 288 210.5 288 212 288C213.333 287.833 215 288.167 217 289C218.833 289.833 220.5 291.583 222 294.25C223.333 296.917 224 301 224 306.5C224 313.833 223 319.25 221 322.75C219 326.083 216.833 328.167 214.5 329C212 329.833 210.167 330.25 209 330.25C208.333 330.25 205.833 330.333 201.5 330.5C197.167 330.5 192.083 330.5 186.25 330.5C180.417 330.5 174.583 330.583 168.75 330.75C162.917 330.75 158.083 330.833 154.25 331C150.417 331 148.5 331 148.5 331L95.5 364.25C95.5 364.25 94.75 364.75 93.25 365.75C91.75 366.75 90 367.417 88 367.75C85.8333 367.917 83.75 367 81.75 365C79.75 363 78.25 359.083 77.25 353.25Z" fill="#007BC0"/>
<path d="M225.444 539.63C225.444 539.63 224.134 539.066 221.513 537.938C218.893 536.81 216.215 534.783 213.478 531.856C210.597 528.845 209.055 524.683 208.851 519.369C208.68 515.999 208.801 512.123 209.213 507.743C209.398 503.423 209.799 499.228 210.417 495.158C210.89 491.005 211.319 487.596 211.703 484.931C212.087 482.266 212.278 480.934 212.278 480.934L181.038 505.043C181.038 505.043 180.158 505.401 178.398 506.117C176.493 506.749 173.98 506.935 170.86 506.673C167.595 506.327 163.809 504.719 159.501 501.847C146.866 493.397 144.406 486.492 152.12 481.131C153.675 480.104 156.516 478.184 160.642 475.37C164.685 472.701 169.309 469.693 174.512 466.346C179.489 463.061 184.423 459.847 189.316 456.706C194.064 453.482 197.993 450.843 201.103 448.789C204.213 446.736 205.768 445.709 205.768 445.709L235.186 392.257C235.186 392.257 235.561 391.607 236.311 390.308C236.833 389.07 237.955 387.794 239.677 386.478C241.315 385.307 243.664 384.739 246.724 384.773C249.7 384.952 253.569 386.416 258.332 389.166C264.683 392.833 268.874 396.407 270.905 399.889C272.792 403.288 273.513 406.206 273.068 408.643C272.54 411.225 271.984 413.021 271.4 414.031C271.067 414.609 269.889 416.815 267.867 420.652C265.7 424.404 263.159 428.807 260.242 433.858C257.325 438.91 254.481 444.004 251.708 449.139C248.792 454.191 246.447 458.418 244.675 461.821C242.758 465.141 241.8 466.801 241.8 466.801L244.095 529.325C244.095 529.325 244.153 530.225 244.269 532.024C244.385 533.823 244.088 535.672 243.376 537.57C242.437 539.53 240.602 540.876 237.87 541.608C235.138 542.34 230.996 541.681 225.444 539.63Z" fill="#007BC0"/>
<path d="M465.694 493.88C465.694 493.88 464.551 494.733 462.263 496.438C459.976 498.144 456.881 499.449 452.978 500.356C448.931 501.345 444.555 500.6 439.851 498.12C436.847 496.582 433.551 494.54 429.963 491.993C426.315 489.673 422.882 487.228 419.667 484.658C416.307 482.172 413.569 480.096 411.453 478.431C409.337 476.766 408.279 475.934 408.279 475.934L413.538 515.044C413.538 515.044 413.408 515.985 413.148 517.867C412.743 519.833 411.647 522.101 409.86 524.673C407.929 527.327 404.642 529.802 400.001 532.097C386.366 538.814 379.156 537.492 378.37 528.131C378.259 526.271 378.016 522.851 377.642 517.87C377.352 513.034 377.059 507.526 376.762 501.346C376.405 495.394 376.09 489.514 375.816 483.706C375.397 477.982 375.077 473.26 374.853 469.54C374.63 465.819 374.518 463.959 374.518 463.959L342.936 411.757C342.936 411.757 342.561 411.107 341.811 409.808C341 408.737 340.455 407.127 340.177 404.978C339.982 402.974 340.664 400.655 342.224 398.023C343.866 395.535 347.069 392.916 351.832 390.166C358.183 386.499 363.374 384.657 367.405 384.639C371.292 384.704 374.18 385.539 376.068 387.143C378.04 388.892 379.317 390.271 379.9 391.281C380.234 391.859 381.556 393.982 383.867 397.652C386.034 401.404 388.575 405.807 391.492 410.858C394.409 415.91 397.397 420.92 400.458 425.889C403.375 430.941 405.864 435.085 407.925 438.321C409.842 441.641 410.8 443.301 410.8 443.301L466.095 472.575C466.095 472.575 466.903 472.975 468.519 473.774C470.135 474.573 471.588 475.755 472.876 477.32C474.104 479.114 474.352 481.376 473.62 484.108C472.888 486.84 470.246 490.098 465.694 493.88Z" fill="#007BC0"/>
<path d="M389.845 77.2755C389.845 77.2755 391.155 77.8395 393.776 78.9674C396.396 80.0954 399.074 82.1229 401.811 85.05C404.692 88.0603 406.234 92.2224 406.438 97.5362C406.609 100.907 406.488 104.782 406.076 109.163C405.891 113.483 405.49 117.677 404.872 121.747C404.399 125.9 403.971 129.309 403.587 131.974C403.203 134.64 403.011 135.972 403.011 135.972L434.251 111.862C434.251 111.862 435.131 111.504 436.891 110.789C438.796 110.156 441.309 109.971 444.429 110.233C447.694 110.578 451.48 112.187 455.788 115.059C468.423 123.508 470.883 130.414 463.169 135.775C461.614 136.802 458.773 138.722 454.647 141.536C450.604 144.205 445.98 147.213 440.777 150.559C435.801 153.845 430.866 157.058 425.973 160.199C421.225 163.424 417.296 166.063 414.186 168.116C411.076 170.17 409.521 171.196 409.521 171.196L380.103 224.649C380.103 224.649 379.728 225.298 378.978 226.597C378.456 227.835 377.334 229.112 375.612 230.428C373.974 231.599 371.625 232.167 368.566 232.133C365.589 231.954 361.72 230.49 356.957 227.74C350.606 224.073 346.415 220.499 344.384 217.017C342.497 213.618 341.776 210.7 342.221 208.262C342.749 205.681 343.305 203.885 343.889 202.874C344.222 202.297 345.4 200.09 347.422 196.254C349.589 192.501 352.13 188.099 355.047 183.047C357.964 177.995 360.808 172.902 363.581 167.767C366.497 162.715 368.842 158.488 370.614 155.084C372.531 151.765 373.489 150.105 373.489 150.105L371.194 87.5804C371.194 87.5804 371.136 86.6809 371.02 84.8819C370.904 83.0828 371.201 81.2339 371.913 79.3352C372.852 77.3755 374.687 76.0296 377.419 75.2976C380.151 74.5655 384.293 75.2248 389.845 77.2755Z" fill="#007BC0"/>
</svg>
